<?xml version="1.0" encoding="utf-8"?>
<!-- Generator: Adobe Illustrator 26.1.0, SVG Export Plug-In . SVG Version: 6.00 Build 0)  -->
<svg version="1.1" id="default_blue_logo" xmlns="http://www.w3.org/2000/svg" xmlns:xlink="http://www.w3.org/1999/xlink" x="0px"
	 y="0px" viewBox="0 0 5859.25 1000" style="enable-background:new 0 0 5859.25 1000;" xml:space="preserve">
<path style="fill:#FFFFFF;" d="M1653.27,520.11c68.72-31.87,103.24-80.84,103.24-146.99c0-47.85-18.3-88.71-54.67-122.35
	c-36.37-33.72-83.73-50.58-141.94-50.58h-268.54v600.98h149.8V557.36h42.95c19.83,0,38.45,7.87,55.8,23.6
	c17.34,15.82,38.13,51.46,62.54,107.09c24.41,55.63,41.43,93.37,51.22,113.12H1818c-25.29-53.31-51.62-109.98-78.76-170.2
	C1712.03,570.77,1683.45,533.76,1653.27,520.11z M1580.29,429.39c-14.77,11.88-34.76,17.74-59.97,17.74h-79.16v-136.8h75.7
	c57.08,0,85.58,22.72,85.58,68C1602.45,400.41,1595.06,417.35,1580.29,429.39z"/>
<polygon style="fill:#FFFFFF;" points="883.62,546.52 1157.61,546.52 1157.61,436.38 883.62,436.38 883.62,310.34 1171.02,310.34 
	1171.02,307.37 1063.68,200.19 733.97,200.19 733.97,801.17 1062.88,801.17 1172.95,691.11 883.62,691.11 "/>
<path style="fill:#FFFFFF;" d="M5830.19,529.74c-19.35-25.53-42.39-45.28-69.04-59.41c-26.65-13.97-62.3-29.22-106.69-45.52
	c-2.25-0.8-4.58-1.69-6.82-2.65c-40.46-15.09-66.23-27.62-77.07-37.41c-11.48-10.28-17.26-21.19-17.26-32.67
	c0-14.85,8.03-26.81,24-35.89c15.9-9.07,37.33-13.57,64.22-13.57c29.06,0,64.14,6.74,105.41,20.31l84.29-84.38
	c-71.05-30.67-138.56-46-202.63-46c-69.6,0-125.24,15.74-166.9,47.53c-41.51,31.63-62.38,73.3-62.38,124.92
	c0,39.98,9.63,72.65,28.66,98.1c19.03,25.53,41.75,45.2,67.92,59.01c26.25,13.73,61.82,28.66,106.77,44.72
	c44.8,16.06,73.14,29.62,84.94,40.86c11.8,11.16,17.58,23.04,17.58,35.64c0,37.01-29.38,55.55-88.15,55.55
	c-34.68,0-67.52-6.18-98.5-18.54c-8.67-3.45-17.58-7.47-26.97-12.04l-79.72,79.72v2.89c69.92,38.7,142.18,58.04,216.76,58.04
	c69.2,0,124.84-16.46,167.22-49.53c42.23-32.91,63.42-77.23,63.42-132.86C5859.25,587.55,5849.54,555.35,5830.19,529.74z"/>
<path style="fill:#FFFFFF;" d="M3919.03,285.21c-63.42-61.9-146.27-92.64-248.63-92.64c-102.68,0-185.77,30.75-249.27,92.4
	c-63.58,61.74-95.29,133.67-95.29,216.04c0,83.65,31.95,155.91,95.86,216.84c63.98,60.77,146.91,91.12,248.71,91.12
	c100.67,0,183.12-30.59,247.34-91.68c64.3-61.01,96.34-133.1,96.34-216.28C4014.08,418.96,3982.45,347.02,3919.03,285.21z
	 M3807.68,633.71c-34.68,33.64-80.44,50.42-137.28,50.42c-57.08,0-103-16.78-137.84-50.42c-34.92-33.8-52.26-77.95-52.26-132.7
	c0-55.15,17.34-99.39,52.26-132.94c34.84-33.56,80.76-50.42,137.84-50.42c56.84,0,102.6,16.86,137.28,50.42
	c34.68,33.56,52.02,77.79,52.02,132.94C3859.7,555.75,3842.36,599.91,3807.68,633.71z"/>
<path style="fill:#FFFFFF;" d="M2441.7,285.21c-63.34-61.9-146.27-92.64-248.55-92.64c-102.76,0-185.85,30.75-249.35,92.4
	c-63.5,61.74-95.29,133.67-95.29,216.04c0,83.65,32.03,155.91,95.94,216.84c63.9,60.77,146.91,91.12,248.71,91.12
	c100.59,0,183.04-30.59,247.34-91.68c64.22-61.01,96.34-133.1,96.34-216.28C2536.83,418.96,2505.12,347.02,2441.7,285.21z
	 M2330.35,633.71c-34.68,33.64-80.44,50.42-137.2,50.42c-57.08,0-103.08-16.78-137.84-50.42c-34.92-33.8-52.42-77.95-52.42-132.7
	c0-55.15,17.5-99.39,52.42-132.94c34.76-33.56,80.76-50.42,137.84-50.42c56.76,0,102.52,16.86,137.2,50.42
	c34.76,33.56,52.1,77.79,52.1,132.94C2382.46,555.75,2365.11,599.91,2330.35,633.71z"/>
<polygon style="fill:#FFFFFF;" points="4607.83,200.19 4022.75,200.19 4022.75,200.27 4077.78,255.3 4022.75,200.27 4077.78,255.3 
	4132.81,310.34 4240.39,310.34 4240.39,801.17 4390.11,801.17 4390.11,310.34 4497.69,310.34 "/>
<path style="fill:#FFFFFF;" d="M3152.19,284.32c-59.49-56.04-140.41-84.13-242.77-84.13h-265.01v600.98h248.15
	c111.91,0,198.05-26.57,258.34-79.8c60.37-53.23,90.56-126.36,90.56-219.57C3241.46,412.93,3211.75,340.36,3152.19,284.32z
	 M3037.14,638.84c-33.56,34.76-82.05,52.26-145.39,52.26h-97.62V310.34h95.94c63.58,0,112.47,17.02,146.43,50.98
	c33.96,33.96,51.06,80.52,51.06,139.69C3087.56,558,3070.7,603.92,3037.14,638.84z"/>
<path style="fill:#FFFFFF;" d="M5144.67,535.36c0,47.61-13.89,84.29-41.59,110.06c-27.62,25.93-64.55,38.69-110.71,38.69
	c-44.48,0-80.36-12.6-107.74-37.81c-27.38-25.13-41.02-58.77-41.02-100.67V200.19h-150.2v342c0,86.14,26.33,152.05,79,197.89
	c52.58,46,126.52,68.88,221.66,68.88c96.42,0,170.6-22.72,222.46-68c51.94-45.2,77.87-111.83,77.87-199.58V200.19h-149.72V535.36z"
	/>
<linearGradient id="SVGID_1_" gradientUnits="userSpaceOnUse" x1="-113.7447" y1="913.7447" x2="797.0557" y2="2.9443">
	<stop  offset="0.0557" style="stop-color:#5400FF"/>
	<stop  offset="0.6123" style="stop-color:#00CFFF"/>
</linearGradient>
<polygon style="fill:url(#SVGID_1_);" points="600,200 600,600 200,600 200,1000 0,800 0,400 400,400 400,0 "/>
<linearGradient id="SVGID_00000023993569347062645140000012323547172071402929_" gradientUnits="userSpaceOnUse" x1="100" y1="30.6413" x2="100" y2="576.773">
	<stop  offset="0.2873" style="stop-color:#5400FF"/>
	<stop  offset="0.399" style="stop-color:#3C3CFF"/>
	<stop  offset="0.5281" style="stop-color:#227BFF"/>
	<stop  offset="0.6377" style="stop-color:#10A8FF"/>
	<stop  offset="0.7217" style="stop-color:#04C4FF"/>
	<stop  offset="0.7703" style="stop-color:#00CFFF"/>
</linearGradient>
<rect y="200" style="fill:url(#SVGID_00000023993569347062645140000012323547172071402929_);" width="200" height="200"/>
<linearGradient id="SVGID_00000038413193946751021470000018360479547887854011_" gradientUnits="userSpaceOnUse" x1="737.7872" y1="419.4073" x2="737.7872" y2="965.539" gradientTransform="matrix(1 0 0 1 -237.7872 11.234)">
	<stop  offset="0.2873" style="stop-color:#5400FF"/>
	<stop  offset="0.399" style="stop-color:#3C3CFF"/>
	<stop  offset="0.5281" style="stop-color:#227BFF"/>
	<stop  offset="0.6377" style="stop-color:#10A8FF"/>
	<stop  offset="0.7217" style="stop-color:#04C4FF"/>
	<stop  offset="0.7703" style="stop-color:#00CFFF"/>
</linearGradient>
<rect x="400" y="600" style="fill:url(#SVGID_00000038413193946751021470000018360479547887854011_);" width="200" height="200"/>
</svg>
